<svg xmlns="http://www.w3.org/2000/svg" viewBox="0 -0.5 32 32" shape-rendering="crispEdges">
<metadata>Made with Pixels to Svg https://codepen.io/shshaw/pen/XbxvNj</metadata>
<path stroke="#e6a242" d="M5 3h8M19 3h8M5 4h8M19 4h8M3 5h2M27 5h2M3 6h2M27 6h2M1 7h2M1 8h2M1 9h2M1 10h2M15 12h2M29 12h2M15 13h2M29 13h2M15 14h2M29 14h2M15 15h2M29 15h2M15 16h2M29 16h2M15 17h2M29 17h2M1 18h2M15 18h2M29 18h2M1 19h2M29 19h2M1 20h2M29 20h2M1 21h2M29 21h2M1 22h2M29 22h2M3 23h10M19 23h8M3 24h10M19 24h8M13 26h2M17 26h2" />
<path stroke="#d9d6d1" d="M5 5h8M19 5h8M3 7h2M13 7h2M17 7h2M27 7h2" />
<path stroke="#d67100" d="M13 5h6M13 6h6M15 7h2M29 7h2M15 8h2M29 8h2M15 9h2M29 9h2M15 10h2M29 10h2M1 11h2M15 11h2M29 11h2M1 12h2M1 13h2M1 14h2M1 15h2M1 16h2M1 17h2M15 19h2M15 20h2M15 21h2M15 22h2M13 23h6M27 23h2M13 24h6M27 24h2M15 25h2M15 26h2" />
<path stroke="#f2eee9" d="M5 6h8M19 6h8M5 7h8M19 7h8M3 8h12M17 8h12M3 9h2M13 9h2M17 9h2M24 9h1M27 9h2M3 10h2M13 10h2M17 10h2M24 10h1M27 10h2M3 11h12M17 11h12M3 12h2M7 12h2M13 12h2M17 12h4M26 12h3M3 13h2M7 13h2M13 13h2M17 13h4M26 13h3M3 14h12M17 14h12M3 15h2M6 15h2M12 15h3M17 15h2M24 15h1M27 15h2M3 16h2M6 16h2M12 16h3M17 16h2M24 16h1M27 16h2M3 17h12M17 17h12M3 18h3M11 18h4M17 18h4M26 18h3M3 19h2M12 19h3M17 19h3M27 19h2M3 20h2M7 20h3M13 20h2M17 20h2M22 20h3M27 20h2M3 21h3M7 21h4M13 21h2M17 21h2M21 21h4M26 21h3M3 22h12M17 22h12" />
<path stroke="#984235" d="M5 9h3M10 9h1M25 9h1M6 10h3M11 10h1M20 10h3M26 10h1M10 12h2M22 12h2M5 13h2M10 13h1M23 13h1M8 15h3M20 15h3M5 16h1M10 16h1M20 16h1M26 16h1M8 18h2M5 19h1M9 19h2M23 19h3M20 20h1M12 21h1M19 21h1M25 21h1" />
<path stroke="#893b30" d="M8 9h2M20 9h1M26 9h1M9 10h1M5 12h1M21 12h1M24 12h1M11 13h1" />
<path stroke="#a9493b" d="M11 9h2M19 9h1M21 9h3M5 10h1M10 10h1M12 10h1M19 10h1M23 10h1M25 10h1M6 12h1M9 12h1M12 12h1M25 12h1M9 13h1M12 13h1M21 13h2M24 13h2M5 15h1M11 15h1M19 15h1M23 15h1M25 15h2M8 16h2M11 16h1M19 16h1M21 16h3M25 16h1M6 18h2M10 18h1M21 18h5M6 19h3M11 19h1M20 19h3M26 19h1M5 20h2M10 20h3M19 20h1M21 20h1M25 20h2M6 21h1M11 21h1M20 21h1" />
<path stroke="#693700" d="M1 23h2M29 23h2M3 25h10M19 25h10M13 27h6" />
<path stroke="#753d00" d="M1 24h2M29 24h2M3 26h10M19 26h10M13 28h6" />
<path stroke="#cf913b" d="M13 25h2M17 25h2" />
</svg>