<svg xmlns="http://www.w3.org/2000/svg" viewBox="0 -0.5 66 46" shape-rendering="crispEdges">
<metadata>Made with Pixels to Svg https://codepen.io/shshaw/pen/XbxvNj</metadata>
<path stroke="#000000" d="M4 0h26M36 0h26M4 1h26M36 1h26M2 2h2M30 2h2M34 2h2M62 2h2M2 3h2M30 3h2M34 3h2M62 3h2M0 4h2M32 4h2M64 4h2M0 5h2M32 5h2M64 5h2M0 6h2M64 6h2M0 7h2M42 7h1M45 7h1M47 7h4M52 7h3M64 7h2M0 8h2M8 8h2M12 8h2M15 8h6M22 8h2M26 8h2M42 8h2M45 8h1M47 8h1M50 8h1M53 8h1M64 8h2M0 9h2M8 9h2M12 9h2M15 9h6M22 9h2M26 9h2M42 9h1M44 9h2M47 9h1M50 9h1M53 9h1M64 9h2M0 10h2M8 10h2M12 10h2M15 10h2M19 10h2M22 10h2M26 10h2M42 10h1M45 10h1M47 10h4M53 10h1M64 10h2M0 11h2M8 11h6M15 11h2M19 11h2M22 11h6M64 11h2M0 12h2M8 12h6M15 12h2M19 12h2M22 12h6M38 12h3M42 12h4M47 12h1M49 12h1M51 12h1M54 12h1M56 12h2M64 12h2M0 13h2M12 13h2M15 13h2M19 13h2M26 13h2M38 13h1M42 13h1M45 13h1M47 13h1M49 13h1M51 13h2M54 13h1M56 13h1M58 13h1M64 13h2M0 14h2M12 14h2M15 14h6M26 14h2M38 14h2M42 14h1M45 14h1M47 14h1M49 14h1M51 14h1M53 14h2M56 14h1M58 14h1M64 14h2M0 15h2M12 15h2M15 15h6M26 15h2M38 15h1M42 15h4M47 15h3M51 15h1M54 15h1M56 15h2M64 15h2M0 16h2M64 16h2M0 17h2M64 17h2M0 18h2M64 18h2M0 19h2M64 19h2M0 20h2M64 20h2M0 21h2M64 21h2M0 22h2M64 22h2M0 23h2M64 23h2M0 24h2M64 24h2M0 25h2M64 25h2M0 26h2M64 26h2M0 27h2M64 27h2M0 28h2M64 28h2M0 29h2M64 29h2M0 30h2M64 30h2M0 31h2M64 31h2M0 32h2M64 32h2M0 33h2M64 33h2M0 34h2M32 34h2M64 34h2M0 35h2M32 35h2M64 35h2M2 36h2M30 36h2M34 36h2M62 36h2M2 37h2M30 37h2M34 37h2M62 37h2M4 38h11M17 38h13M36 38h26M4 39h11M17 39h13M36 39h26M11 40h2M15 40h2M11 41h2M15 41h2M11 42h2M15 42h2M11 43h2M15 43h2M13 44h2M13 45h2" />
<path stroke="#3dabcc" d="M4 2h2M60 2h2M4 3h2M60 3h2M2 4h2M62 4h2M2 5h2M62 5h2M2 34h2M62 34h2M2 35h2M62 35h2M4 36h2M60 36h2M4 37h2M60 37h2" />
<path stroke="#d19d00" d="M6 2h24M36 2h24M6 3h24M36 3h24M4 4h2M30 4h2M34 4h2M60 4h2M4 5h2M30 5h2M34 5h2M60 5h2M2 6h2M32 6h2M62 6h2M2 7h2M32 7h2M62 7h2M2 8h2M62 8h2M2 9h2M62 9h2M2 10h2M62 10h2M2 11h2M62 11h2M2 12h2M62 12h2M2 13h2M62 13h2M2 14h2M62 14h2M2 15h2M62 15h2M2 16h2M62 16h2M2 17h2M62 17h2M2 18h2M62 18h2M2 19h2M62 19h2M2 20h2M62 20h2M2 21h2M62 21h2M2 22h2M62 22h2M2 23h2M62 23h2M2 24h2M62 24h2M2 25h2M62 25h2M2 26h2M62 26h2M2 27h2M62 27h2M2 28h2M62 28h2M2 29h2M62 29h2M2 30h2M62 30h2M2 31h2M62 31h2M2 32h2M32 32h2M62 32h2M2 33h2M32 33h2M62 33h2M4 34h2M30 34h2M34 34h2M60 34h2M4 35h2M30 35h2M34 35h2M60 35h2M6 36h7M19 36h11M36 36h24M6 37h7M19 37h11M36 37h24" />
<path stroke="#ffffff" d="M6 4h24M36 4h24M6 5h24M36 5h24M5 6h27M34 6h27M5 7h27M34 7h8M43 7h2M46 7h1M51 7h1M55 7h6M5 8h3M10 8h2M14 8h1M21 8h1M24 8h2M28 8h4M34 8h8M44 8h1M46 8h1M48 8h2M51 8h2M54 8h7M5 9h3M10 9h2M14 9h1M21 9h1M24 9h2M28 9h4M34 9h8M43 9h1M46 9h1M48 9h2M51 9h2M54 9h7M5 10h3M10 10h2M14 10h1M17 10h2M21 10h1M24 10h2M28 10h4M34 10h8M43 10h2M46 10h1M51 10h2M54 10h7M5 11h3M14 11h1M17 11h2M21 11h1M28 11h4M34 11h27M5 12h3M14 12h1M17 12h2M21 12h1M28 12h4M34 12h4M41 12h1M46 12h1M48 12h1M50 12h1M52 12h2M55 12h1M58 12h3M5 13h7M14 13h1M17 13h2M21 13h5M28 13h4M34 13h4M39 13h3M43 13h2M46 13h1M48 13h1M50 13h1M53 13h1M55 13h1M57 13h1M59 13h2M5 14h7M14 14h1M21 14h5M28 14h4M34 14h4M40 14h2M43 14h2M46 14h1M48 14h1M50 14h1M52 14h1M55 14h1M57 14h1M59 14h2M5 15h7M14 15h1M21 15h5M28 15h4M34 15h4M39 15h3M46 15h1M50 15h1M52 15h2M55 15h1M58 15h3M5 16h27M34 16h27M5 17h27M34 17h27M5 18h3M26 18h6M34 18h4M54 18h7M5 19h27M34 19h27M5 20h3M23 20h9M34 20h4M48 20h13M5 21h27M34 21h27M5 22h3M19 22h13M34 22h4M41 22h20M5 23h27M34 23h27M5 24h3M24 24h8M34 24h4M50 24h11M6 25h26M34 25h27M6 26h2M22 26h10M34 26h4M52 26h9M6 27h26M34 27h27M5 28h3M16 28h16M34 28h4M42 28h19M5 29h27M34 29h27M5 30h3M12 30h19M35 30h3M40 30h21M5 31h26M35 31h26M5 32h26M35 32h25M6 33h24M36 33h24M7 34h22M37 34h22" />
<path stroke="#c9c9c9" d="M4 6h1M61 6h1M4 7h1M61 7h1M4 8h1M32 8h2M61 8h1M4 9h1M32 9h2M61 9h1M4 10h1M32 10h2M61 10h1M4 11h1M32 11h2M61 11h1M4 12h1M32 12h2M61 12h1M4 13h1M32 13h2M61 13h1M4 14h1M32 14h2M61 14h1M4 15h1M32 15h2M61 15h1M4 16h1M32 16h2M61 16h1M4 17h1M32 17h2M61 17h1M4 18h1M32 18h2M61 18h1M4 19h1M32 19h2M61 19h1M4 20h1M32 20h2M61 20h1M4 21h1M32 21h2M61 21h1M4 22h1M32 22h2M61 22h1M4 23h1M32 23h2M61 23h1M4 24h1M32 24h2M61 24h1M4 25h1M32 25h2M61 25h1M4 26h1M32 26h2M61 26h1M4 27h1M32 27h2M61 27h1M4 28h1M32 28h2M61 28h1M4 29h1M32 29h2M61 29h1M4 30h1M32 30h2M61 30h1M4 31h1M32 31h2M61 31h1M4 32h1M4 33h2M61 33h1M6 34h1M29 34h1M36 34h1M59 34h1M6 35h24M36 35h16M53 35h7" />
<path stroke="#bfbfbf" d="M8 18h18M38 18h16M8 20h15M38 20h10M8 22h11M38 22h3M8 24h16M38 24h12M8 26h14M38 26h14M8 28h8M38 28h4M8 30h4M38 30h2" />
<path stroke="#fcfcfc" d="M5 25h1M5 27h1" />
<path stroke="#fafafa" d="M5 26h1" />
<path stroke="#b2b2b2" d="M31 30h1M34 30h1M31 31h1M34 31h1M31 32h1M34 32h1M30 33h1M35 33h1" />
<path stroke="#fdfdfd" d="M60 32h1" />
<path stroke="#c8c8c8" d="M61 32h1" />
<path stroke="#7c7c7c" d="M31 33h1M34 33h1" />
<path stroke="#c0c0c0" d="M60 33h1" />
<path stroke="#cdcdcd" d="M52 35h1" />
<path stroke="#aa2124" d="M13 36h2M17 36h2M13 37h2M17 37h2" />
<path stroke="#f32f34" d="M15 36h2M15 37h2M15 38h2M15 39h2M13 40h2M13 41h2M13 42h2M13 43h2" />
</svg>